<?xml version="1.0" standalone="no"?>
<!DOCTYPE svg PUBLIC "-//W3C//DTD SVG 20010904//EN"
 "http://www.w3.org/TR/2001/REC-SVG-20010904/DTD/svg10.dtd">
<svg version="1.0" xmlns="http://www.w3.org/2000/svg"
 width="1024.000000pt" height="1024.000000pt" viewBox="0 0 1024.000000 1024.000000"
 preserveAspectRatio="xMidYMid meet">

<g transform="translate(0.000000,1024.000000) scale(0.100000,-0.100000)"
fill="#000000" stroke="none">
<path d="M1145 6795 c-191 -41 -327 -156 -426 -360 -133 -277 -147 -554 -41
-828 38 -97 91 -175 167 -245 112 -102 219 -154 583 -281 178 -63 275 -107
343 -158 168 -125 238 -274 209 -451 -7 -43 -21 -94 -32 -115 -39 -78 -148
-159 -255 -190 -121 -36 -342 -30 -473 13 -88 28 -190 84 -262 144 -119 99
-178 181 -293 411 -23 45 -36 61 -54 63 l-24 4 7 -214 c4 -117 9 -238 11 -268
1 -30 3 -68 4 -83 1 -40 22 -42 101 -12 l71 27 53 -21 c61 -25 130 -45 236
-67 41 -9 122 -29 180 -45 188 -54 351 -50 535 13 131 45 192 78 287 157 170
140 240 298 240 541 -1 101 -21 222 -52 303 -90 236 -305 412 -665 541 -71 26
-175 63 -230 83 -324 117 -379 146 -481 247 -97 97 -119 152 -118 296 0 96 3
111 31 171 17 37 55 92 88 127 101 109 182 143 340 143 146 -1 292 -33 398
-87 42 -22 130 -106 183 -176 56 -73 142 -220 161 -278 27 -80 79 -186 103
-208 28 -26 68 -29 77 -6 8 21 -17 293 -30 324 -6 14 -13 117 -16 230 l-6 205
-60 0 -60 0 -6 -43 c-10 -79 -17 -80 -175 -22 -343 127 -482 152 -649 115z"/>
<path d="M2451 6754 c0 -5 27 -22 61 -39 33 -16 78 -45 99 -65 l40 -35 -1
-1146 c0 -723 -3 -1156 -9 -1173 -6 -15 -44 -48 -97 -83 l-87 -58 219 -5 c221
-5 873 -6 1432 -2 l302 2 0 295 c0 162 -4 295 -8 295 -5 0 -16 -17 -24 -37
-31 -79 -146 -239 -226 -314 -65 -61 -103 -86 -217 -144 l-138 -70 -266 0
c-146 0 -277 3 -291 7 -14 4 -34 22 -45 40 -19 32 -19 65 -23 1271 l-4 1237
208 0 c285 0 363 -10 483 -62 109 -47 195 -104 263 -175 49 -50 178 -221 178
-235 0 -4 6 -8 13 -8 11 0 11 26 0 143 -15 167 -41 339 -52 350 -12 12 -1811
22 -1810 11z"/>
<path d="M9169 6756 c-2 -2 -107 -7 -234 -11 -126 -4 -248 -9 -270 -10 -22 -2
-116 -4 -210 -5 -154 -1 -167 -3 -134 -15 137 -50 189 -109 189 -212 0 -96
-42 -166 -217 -357 -30 -32 -71 -82 -93 -111 -21 -28 -44 -58 -52 -66 -24 -25
-68 -87 -68 -96 0 -4 -9 -14 -20 -21 -12 -7 -19 -16 -16 -20 2 -4 -2 -13 -10
-20 -8 -7 -14 -10 -14 -6 0 4 -12 -9 -27 -27 -16 -19 -37 -44 -48 -57 -11 -12
-18 -24 -15 -26 3 -1 -8 -14 -24 -28 -22 -19 -26 -27 -16 -33 9 -5 11 -4 6 3
-4 7 -3 12 2 12 17 0 112 105 107 118 -2 7 -1 10 4 7 6 -3 70 57 143 132 391
406 674 678 779 750 52 36 140 68 217 78 28 4 49 11 46 16 -5 9 -18 12 -25 5z"/>
<path d="M4687 6720 c46 -15 69 -29 88 -54 l26 -34 6 -284 c7 -340 7 -431 -1
-788 -4 -151 -7 -498 -8 -770 -1 -289 -6 -503 -11 -514 -18 -37 -52 -63 -119
-92 -37 -15 -66 -29 -64 -31 1 -1 435 -4 963 -5 l961 -3 4 285 c2 157 3 287 2
289 -2 2 -10 -13 -18 -33 -41 -99 -147 -230 -259 -320 -62 -50 -231 -138 -335
-176 -61 -22 -71 -23 -311 -18 -260 6 -299 13 -316 55 -4 10 -9 288 -12 617
-6 548 -5 600 10 611 15 11 15 14 -3 30 -19 17 -20 32 -19 622 0 333 -1 606
-3 608 -2 1 -136 5 -298 9 -162 3 -306 8 -320 11 -14 3 3 -4 37 -15z"/>
<path d="M7450 6700 c0 -3 -22 -5 -50 -4 -36 2 -56 -3 -75 -18 l-26 -20 28
-25 c22 -19 23 -22 6 -14 -30 15 -32 14 -26 -9 3 -11 0 -20 -6 -20 -7 0 -8 -8
-1 -24 8 -23 7 -24 -17 -20 -23 4 -25 3 -13 -11 7 -9 19 -14 26 -11 7 3 16 0
20 -6 4 -6 3 -8 -4 -4 -6 3 -13 2 -17 -3 -3 -6 -12 -8 -20 -4 -19 7 -15 -35 4
-46 10 -6 9 -9 -2 -14 -8 -3 -19 -1 -23 3 -5 5 -15 5 -24 -1 -12 -8 -11 -9 5
-7 15 2 21 -3 23 -22 2 -16 0 -20 -5 -13 -6 9 -12 7 -21 -7 -11 -18 -9 -20 10
-20 21 -1 21 -2 5 -11 -9 -5 -23 -7 -30 -3 -7 5 -6 0 3 -11 9 -12 10 -16 2
-11 -8 5 -20 -1 -31 -16 -11 -13 -23 -20 -27 -15 -4 4 1 14 12 22 18 14 18 15
-6 6 -14 -4 -24 -12 -22 -17 2 -4 -5 -11 -15 -15 -17 -7 -17 -8 0 -8 9 -1 17
-9 17 -18 0 -14 -2 -15 -9 -5 -10 17 -18 17 -36 -2 -17 -17 -20 -30 -5 -21 6
3 7 -1 4 -9 -3 -9 -13 -16 -21 -16 -9 0 -13 -6 -10 -15 4 -8 2 -17 -3 -20 -6
-4 -10 -2 -10 4 0 6 -8 7 -17 4 -11 -4 -13 -8 -5 -11 9 -3 10 -8 2 -17 -6 -7
-10 -17 -9 -21 1 -5 -1 -25 -4 -44 -11 -59 -16 -321 -23 -1085 -6 -703 -7
-731 -26 -766 -22 -40 -103 -95 -156 -105 -17 -4 -32 -9 -32 -13 0 -3 174 -5
387 -4 214 0 447 -2 518 -6 72 -4 132 -5 134 -4 11 8 -12 15 -72 23 -37 6 -84
17 -107 26 -51 21 -128 105 -134 147 -9 62 -13 344 -7 537 7 221 9 226 77 166
39 -34 238 -255 379 -421 225 -265 335 -400 335 -410 0 -6 -36 -21 -80 -35
-45 -13 -83 -26 -85 -29 -1 -3 232 -6 518 -6 287 0 578 -4 646 -9 101 -7 123
-6 119 5 -2 7 -34 18 -75 25 -123 20 -206 56 -320 136 -181 127 -1223 1155
-1223 1207 0 9 8 28 17 41 17 24 17 25 -2 10 -11 -8 -42 -39 -70 -70 -142
-157 -184 -185 -226 -151 -18 15 -20 34 -27 321 -8 337 -9 902 -3 965 3 22 11
52 18 68 7 15 11 28 8 28 -17 4 -65 3 -65 -1z m-113 -40 c-1 -12 -5 -16 -10
-11 -5 5 -6 14 -3 20 11 16 15 13 13 -9z m-27 -167 c0 -1 -8 -7 -18 -12 -13
-7 -19 -6 -19 2 0 7 9 13 19 13 10 0 18 -1 18 -3z"/>
<path d="M7187 6390 c-3 -11 -1 -20 4 -20 5 0 9 9 9 20 0 11 -2 20 -4 20 -2 0
-6 -9 -9 -20z"/>
<path d="M3627 5859 c-10 -6 -17 -22 -17 -38 0 -19 -7 -31 -22 -39 -15 -7 -18
-11 -8 -11 11 -1 15 -10 14 -28 -1 -16 -2 -38 -3 -50 -1 -14 -11 -24 -30 -31
-22 -8 -29 -18 -35 -48 -10 -61 -18 -67 -96 -75 -71 -6 -110 -24 -134 -61 -8
-13 -1 -25 34 -57 25 -22 63 -46 85 -52 66 -18 115 -79 159 -198 36 -95 61
-131 92 -131 7 0 14 6 17 14 9 23 21 709 13 749 -4 22 -13 37 -21 37 -8 0 -18
6 -22 14 -6 11 -13 12 -26 5z"/>
<path d="M5727 5817 c-15 -12 -29 -33 -31 -47 -3 -14 -7 -47 -11 -75 -9 -61
-24 -91 -67 -131 -38 -35 -68 -48 -153 -65 -63 -12 -95 -25 -95 -38 0 -4 39
-25 86 -47 124 -56 186 -130 234 -276 12 -37 30 -78 40 -90 32 -39 42 -12 42
118 1 396 -3 674 -9 674 -5 0 -21 -10 -36 -23z"/>
</g>
</svg>
